<?xml version="1.0" encoding="UTF-8"?>
<svg width="512px" height="512px" viewBox="0 0 512 512" version="1.1" xmlns="http://www.w3.org/2000/svg" xmlns:xlink="http://www.w3.org/1999/xlink">
    <title>Artboard</title>
    <g id="Artboard" stroke="none" stroke-width="1" fill="none" fill-rule="evenodd">
        <rect fill="#FFFFFF" x="0" y="0" width="512" height="512"></rect>
        <g id="K" transform="translate(81.000000, 79.000000)" fill="#202124" fill-rule="nonzero">
            <path d="M1.05421687,299.695846 L34.2620482,290.74184 L34.2620482,89.0133531 C34.2620482,79.8837784 33.6470884,73.8266568 32.4171687,70.8419881 C31.187249,67.8573195 27.7610442,65.136004 22.1385542,62.6780415 L0,50.037092 L1.5813253,0 L166.039157,0 L168.674699,53.7240356 L129.668675,64.2581602 L129.668675,163.278932 L221.912651,63.731454 C223.318273,62.3269041 224.021084,60.3956479 224.021084,57.9376855 C224.021084,56.181998 223.493976,54.6018793 222.439759,53.1973294 L207.153614,34.7626113 L212.951807,0 L335.240964,0 L341.566265,35.8160237 L220.858434,164.85905 L350,331.29822 L350,355 L249.322289,355 L129.668675,196.461424 L129.668675,269.673591 C129.668675,277.398615 130.283635,282.665678 131.513554,285.474777 C132.743474,288.283877 135.993976,291.092977 141.26506,293.902077 L169.201807,309.703264 L167.093373,355 L3.68975904,355 L1.05421687,299.695846 Z"></path>
        </g>
    </g>
</svg>